<?xml version="1.0" standalone="no"?>
<svg xmlns="http://www.w3.org/2000/svg" width="24" height="24"><rect width="24" height="24" opacity="0"></rect><g><path d="M12 1.01Q9.02 1.01 6.49 2.48Q3.96 3.96 2.48 6.49Q1.01 9.02 1.01 12Q1.01 14.98 2.48 17.51Q3.96 20.04 6.49 21.52Q9.02 22.99 12 22.99Q14.98 22.99 17.51 21.52Q20.04 20.04 21.52 17.51Q22.99 14.98 22.99 12Q22.99 9.02 21.52 6.49Q20.04 3.96 17.51 2.48Q14.98 1.01 12 1.01ZM2.5 12Q2.5 9.41 3.76 7.24Q5.02 5.06 7.19 3.78Q9.36 2.5 12 2.5Q14.57 2.5 16.75 3.74Q18.94 4.99 20.22 7.18Q21.5 9.36 21.5 12Q21.5 14.69 20.21 16.86Q18.91 19.03 16.73 20.27Q14.54 21.5 12 21.5Q9.34 21.5 7.16 20.21Q4.99 18.91 3.74 16.74Q2.5 14.57 2.5 12Z" fill="rgba(0,0,0,1)"></path><path d="M12.74 11.26L12.74 7.25Q12.74 6.94 12.53 6.72Q12.31 6.5 12 6.5Q11.69 6.5 11.47 6.72Q11.26 6.94 11.26 7.25L11.26 11.26L7.25 11.26Q6.94 11.26 6.72 11.47Q6.5 11.69 6.5 12Q6.5 12.31 6.72 12.53Q6.94 12.74 7.25 12.74L11.26 12.74L11.26 16.75Q11.26 17.06 11.47 17.28Q11.69 17.5 12 17.5Q12.31 17.5 12.53 17.28Q12.74 17.06 12.74 16.75L12.74 12.74L16.75 12.74Q17.06 12.74 17.28 12.53Q17.5 12.31 17.5 12Q17.5 11.69 17.28 11.47Q17.06 11.26 16.75 11.26Z" fill="rgba(0,0,0,1)"></path></g></svg>