<?xml version="1.0" standalone="no"?>
<svg xmlns="http://www.w3.org/2000/svg" width="24" height="24"><rect width="24" height="24" opacity="0"></rect><g><path d="M6 19.49Q4.78 19.49 3.74 18.89Q2.71 18.29 2.11 17.26Q1.51 16.22 1.51 15Q1.51 13.68 2.22 12.56Q2.93 11.45 4.13 10.92Q4.32 10.82 4.43 10.67Q4.54 10.51 4.56 10.32Q4.66 9.14 5.18 8.06L4.08 6.96Q3.34 8.28 3.12 9.74Q1.68 10.54 0.84 11.95Q0 13.37 0 15Q0 16.63 0.8 18.01Q1.61 19.39 2.99 20.2Q4.37 21 6 21L18.1 21L16.58 19.49L6 19.49ZM22.22 19.25Q23.06 18.41 23.52 17.32Q23.98 16.22 23.98 15Q23.98 13.51 23.28 12.2Q22.58 10.9 21.37 10.06Q20.16 9.22 18.7 9.05Q18.26 7.3 17.15 5.92Q16.03 4.54 14.41 3.76Q12.79 2.98 10.97 2.98Q8.81 2.98 6.94 4.06L8.06 5.16Q9.41 4.49 10.97 4.49Q12.55 4.49 13.92 5.18Q15.29 5.88 16.2 7.1Q17.11 8.33 17.35 9.89Q17.38 10.15 17.59 10.33Q17.81 10.51 18.07 10.51Q19.27 10.54 20.29 11.14Q21.31 11.74 21.91 12.76Q22.51 13.78 22.51 15Q22.51 15.91 22.16 16.74Q21.82 17.57 21.17 18.19L22.22 19.25Z" fill="rgba(232,64,38,1)"></path><path d="M21.77 21.74Q21.98 21.53 21.98 21.22Q21.98 20.9 21.77 20.69L3.24 2.18Q3.02 1.97 2.71 1.97Q2.4 1.97 2.18 2.18Q1.99 2.38 1.98 2.66Q1.97 2.95 2.14 3.17L2.18 3.24L20.71 21.74Q20.93 21.96 21.22 21.96Q21.5 21.96 21.77 21.74Z" fill="rgba(232,64,38,1)"></path></g></svg>