<?xml version="1.0" standalone="no"?>
<svg xmlns="http://www.w3.org/2000/svg" width="24" height="24"><rect width="24" height="24" opacity="0"></rect><g><path d="M18 21Q19.61 21 20.99 20.2Q22.37 19.39 23.17 18.01Q23.98 16.63 23.98 15Q23.98 13.51 23.28 12.2Q22.58 10.9 21.37 10.07Q20.16 9.24 18.7 9.07Q18.26 7.32 17.15 5.94Q16.03 4.56 14.41 3.78Q12.79 3 10.97 3Q9.02 3 7.33 3.88Q5.64 4.75 4.52 6.29Q3.41 7.82 3.12 9.74Q1.68 10.54 0.84 11.95Q0 13.37 0 15Q0 16.63 0.82 18.01Q1.63 19.39 3.01 20.2Q4.39 21 6 21L18 21ZM10.97 4.49Q12.55 4.49 13.92 5.18Q15.29 5.88 16.2 7.12Q17.11 8.35 17.35 9.89Q17.38 10.15 17.59 10.33Q17.81 10.51 18.07 10.51Q19.27 10.54 20.29 11.14Q21.31 11.74 21.91 12.76Q22.51 13.78 22.51 15Q22.51 16.22 21.9 17.26Q21.29 18.29 20.26 18.9Q19.22 19.51 18 19.51L6 19.51Q4.78 19.51 3.74 18.9Q2.71 18.29 2.11 17.26Q1.51 16.22 1.51 15Q1.51 13.7 2.22 12.59Q2.93 11.47 4.13 10.92Q4.32 10.85 4.44 10.68Q4.56 10.51 4.56 10.32Q4.7 8.69 5.6 7.36Q6.5 6.02 7.92 5.26Q9.34 4.49 10.97 4.49Z" fill="rgba(10,89,247,1)"></path></g></svg>