<?xml version="1.0" standalone="no"?>
<svg xmlns="http://www.w3.org/2000/svg" width="24" height="24"><rect width="24" height="24" opacity="0"></rect><g><path d="M4.34 19.63Q3.74 19.03 3.53 18.23Q3.31 17.42 3.53 16.61Q3.74 15.79 4.34 15.19L5.98 13.58Q6.48 13.06 7.18 12.8Q7.87 12.55 8.54 12.7L9.1 12.14L8.09 11.16Q7.22 11.18 6.4 11.52Q5.57 11.86 4.92 12.5L3.29 14.14Q2.4 15.02 2.09 16.21Q1.78 17.4 2.09 18.6Q2.4 19.8 3.29 20.69Q4.18 21.58 5.38 21.9Q6.58 22.22 7.78 21.9Q8.98 21.58 9.84 20.69L11.47 19.08Q12.84 17.71 12.84 15.82L11.88 14.88L11.3 15.46Q11.45 16.13 11.2 16.81Q10.94 17.5 10.42 18.02L8.78 19.63Q8.18 20.23 7.37 20.45Q6.55 20.66 5.75 20.45Q4.94 20.23 4.34 19.63ZM7.2 15.72Q6.98 15.94 6.98 16.25Q6.98 16.56 7.2 16.78Q7.46 16.99 7.75 16.99Q8.04 16.99 8.28 16.78L11.02 14.04L9.96 12.98L7.2 15.72ZM16.78 8.28Q16.99 8.06 16.99 7.75Q16.99 7.44 16.78 7.22Q16.56 7.01 16.25 7.01Q15.94 7.01 15.72 7.22L12.89 10.06L13.94 11.11L16.78 8.28ZM20.69 3.31Q19.78 2.4 18.58 2.09Q17.38 1.78 16.19 2.1Q15 2.42 14.14 3.31L12.5 4.92Q11.83 5.62 11.5 6.47Q11.16 7.32 11.16 8.3L12.05 9.19L12.67 8.57Q12.67 7.61 12.83 7.08Q12.98 6.55 13.56 6L15.19 4.37Q15.77 3.77 16.58 3.56Q17.4 3.36 18.22 3.56Q19.03 3.77 19.63 4.37Q20.23 4.97 20.45 5.78Q20.66 6.6 20.45 7.4Q20.23 8.21 19.63 8.81L18 10.44Q17.5 10.94 16.82 11.16Q16.15 11.38 15.43 11.3L14.78 11.98L15.62 12.84Q16.66 12.84 17.52 12.5Q18.38 12.17 19.08 11.47L20.69 9.86Q21.58 8.98 21.9 7.78Q22.22 6.58 21.9 5.39Q21.58 4.2 20.69 3.31Z" fill="rgba(232,64,38,1)"></path><path d="M19.94 20.02Q20.16 19.8 20.17 19.51Q20.18 19.22 19.99 19.01L19.94 18.96L4.99 3.98Q4.78 3.77 4.46 3.77Q4.15 3.77 3.94 3.98Q3.72 4.2 3.72 4.51Q3.72 4.82 3.94 5.04L18.91 20.02L18.98 20.06Q19.2 20.23 19.48 20.22Q19.75 20.21 19.94 20.02Z" fill="rgba(232,64,38,1)"></path></g></svg>