<?xml version="1.0" standalone="no"?>
<svg xmlns="http://www.w3.org/2000/svg" width="24" height="24"><rect width="24" height="24" opacity="0"></rect><g mask="url(#hms_mask_0)"><path d="M22.87 11.47Q21.77 9.48 20.04 8.02Q18.31 6.55 16.24 5.77Q14.16 4.99 12 4.99Q9.84 4.99 7.76 5.77Q5.69 6.55 3.96 8.02Q2.23 9.48 1.13 11.47Q1.01 11.69 1.01 11.94Q1.01 12.19 1.13 12.43Q2.23 14.4 3.96 15.89Q5.69 17.38 7.78 18.18Q9.86 18.98 12 18.98Q14.16 18.98 16.24 18.18Q18.31 17.38 20.04 15.9Q21.77 14.42 22.87 12.43Q22.99 12.19 22.99 11.94Q22.99 11.69 22.87 11.47ZM10.15 17.33Q7.85 16.8 5.87 15.41Q3.89 14.02 2.66 12L2.66 11.83Q4.13 9.38 6.66 7.94Q9.19 6.5 12 6.5Q14.86 6.5 17.38 7.96Q19.9 9.41 21.36 11.86L21.36 12.05Q20.14 14.06 18.17 15.44Q16.2 16.82 13.92 17.35Q12.05 17.76 10.15 17.33ZM11.98 17.62Q13.39 17.62 14.58 16.92Q15.77 16.22 16.46 15.02Q17.16 13.82 17.16 12.41Q17.16 10.99 16.46 9.8Q15.77 8.62 14.58 7.92Q13.39 7.22 11.98 7.22Q11.09 7.22 10.25 7.51Q10.01 7.61 10.01 7.7Q10.01 7.8 10.27 7.92Q10.82 8.18 11.16 8.7Q11.5 9.22 11.5 9.84Q11.5 10.73 10.87 11.35Q10.25 11.98 9.38 11.98Q8.83 11.98 8.35 11.7Q7.87 11.42 7.58 10.97Q7.39 10.68 7.22 10.68Q7.06 10.68 6.96 10.99Q6.77 11.71 6.77 12.41Q6.77 13.82 7.46 15.02Q8.16 16.22 9.36 16.92Q10.56 17.62 11.98 17.62Z" fill="rgba(0,0,0,0.6)"></path></g><defs><mask id="hms_mask_0"><rect width="24" height="24" fill="#ffffff"></rect><g><path d="M5.23 2.33Q4.99 2.04 4.62 1.9Q4.25 1.75 3.84 1.75Q2.9 1.75 2.33 2.33Q1.75 2.9 1.75 3.82Q1.75 4.2 1.9 4.58Q2.04 4.97 2.33 5.21L18.72 21.62Q19.01 21.91 19.4 22.08Q19.8 22.25 20.16 22.25Q20.57 22.25 20.96 22.08Q21.36 21.91 21.6 21.6Q21.91 21.36 22.08 20.96Q22.25 20.57 22.25 20.16Q22.25 19.8 22.08 19.4Q21.91 19.01 21.62 18.72L5.23 2.33Z" fill="#000000"></path></g></mask></defs><g><path d="M19.63 20.69Q19.9 20.9 20.18 20.9Q20.47 20.9 20.71 20.69Q20.93 20.47 20.93 20.16Q20.93 19.85 20.71 19.63L4.32 3.24Q4.08 3.02 3.77 3.02Q3.46 3.02 3.26 3.24Q3.02 3.46 3 3.73Q2.98 4.01 3.19 4.22L19.63 20.69Z" fill="rgba(0,0,0,0.6)"></path></g></svg>