<?xml version="1.0" standalone="no"?>
<svg xmlns="http://www.w3.org/2000/svg" width="24" height="24"><rect width="24" height="24" opacity="0"></rect><g><path d="M19.51 11.09Q19.51 10.78 19.28 10.56Q19.06 10.34 18.74 10.34Q18.43 10.34 18.22 10.56Q18 10.78 18 11.09Q18 12.72 17.2 14.1Q16.39 15.48 15.01 16.28Q13.63 17.09 12.02 17.09Q10.39 17.09 9.01 16.28Q7.63 15.48 6.82 14.1Q6 12.72 6 11.09Q6 10.78 5.78 10.56Q5.57 10.34 5.26 10.34Q4.94 10.34 4.73 10.56Q4.51 10.78 4.51 11.09Q4.51 13.01 5.4 14.64Q6.29 16.27 7.84 17.32Q9.38 18.36 11.26 18.55L11.26 21.26Q11.26 21.58 11.47 21.79Q11.69 22.01 12 22.01Q12.31 22.01 12.53 21.79Q12.74 21.58 12.74 21.26L12.74 18.55Q14.62 18.36 16.16 17.32Q17.71 16.27 18.61 14.64Q19.51 13.01 19.51 11.09ZM8.5 11.47Q8.5 12.43 8.96 13.24Q9.43 14.04 10.24 14.51Q11.04 14.98 12 14.98Q12.96 14.98 13.76 14.51Q14.57 14.04 15.04 13.24Q15.5 12.43 15.5 11.47L15.5 5.47Q15.5 4.54 15.04 3.72Q14.57 2.9 13.76 2.44Q12.96 1.97 12 1.97Q11.04 1.97 10.24 2.44Q9.43 2.9 8.96 3.72Q8.5 4.54 8.5 5.47L8.5 11.47Z" fill="rgba(0,0,0,0.6)"></path></g></svg>