<?xml version="1.0" standalone="no"?>
<svg xmlns="http://www.w3.org/2000/svg" width="24" height="24"><rect width="24" height="24" opacity="0"></rect><g><path d="M5.98 13.15Q6.46 13.63 7.18 13.63Q7.9 13.63 8.4 13.13Q8.9 12.62 8.9 11.9Q8.9 11.18 8.42 10.7Q7.92 10.2 7.21 10.2Q6.5 10.2 6 10.73Q5.5 11.23 5.48 11.94Q5.47 12.65 5.98 13.15ZM1.32 9.94Q0.65 12 1.3 13.92Q1.94 15.84 3.56 17.04Q5.18 18.24 7.25 18.24Q8.95 18.24 10.42 17.36Q11.88 16.49 12.7 15L14.18 16.54L15 16.54L16.68 14.47L17.18 14.47L18.91 16.54L19.58 16.54L22.73 12.67Q23.02 12.36 23 11.95Q22.99 11.54 22.68 11.23L20.81 9.43L12.94 9.43Q12.29 7.99 11.09 7.04Q9.89 6.1 8.35 5.83Q6.82 5.57 5.26 6.05Q3.86 6.48 2.82 7.51Q1.78 8.54 1.32 9.94ZM2.76 10.39Q3.22 8.9 4.5 8.08Q5.78 7.25 7.27 7.25Q8.88 7.25 10.15 8.27Q11.42 9.29 11.9 10.94L20.26 10.94L21.36 12.05L19.2 14.66L17.95 12.98L15.98 12.98L14.54 14.76L12.77 12.98L11.93 12.98Q11.52 14.69 10.18 15.72Q8.83 16.75 7.27 16.75Q5.66 16.75 4.43 15.83Q3.19 14.9 2.72 13.43Q2.26 11.95 2.76 10.39Z" fill="rgba(0,0,0,1)"></path></g></svg>