<?xml version="1.0" standalone="no"?>
<svg xmlns="http://www.w3.org/2000/svg" width="24" height="24"><rect width="24" height="24" opacity="0"></rect><g><path d="M11.38 17.35Q11.64 17.11 12.01 17.11Q12.38 17.11 12.62 17.35L17.54 22.01Q17.86 22.3 18.29 22.37Q18.72 22.44 19.13 22.27Q19.51 22.1 19.75 21.74Q19.99 21.38 19.99 20.95L19.99 3.65Q19.99 2.81 19.39 2.2Q18.79 1.58 17.95 1.58L6.05 1.58Q5.21 1.58 4.61 2.2Q4.01 2.81 4.01 3.65L4.01 20.95Q4.01 21.38 4.25 21.74Q4.49 22.1 4.87 22.27Q5.21 22.46 5.66 22.39Q6.12 22.32 6.43 22.01L11.38 17.35ZM17.95 3.1Q18.17 3.1 18.34 3.25Q18.5 3.41 18.5 3.65L18.58 20.9L13.66 16.27Q12.98 15.6 12.01 15.6Q11.04 15.6 10.34 16.27L5.5 20.95L5.5 3.65Q5.5 3.41 5.66 3.25Q5.83 3.1 6.05 3.1L17.95 3.1Z" fill="rgba(0,0,0,0.4)"></path></g></svg>