<?xml version="1.0" standalone="no"?>
<svg xmlns="http://www.w3.org/2000/svg" width="24" height="24"><rect width="24" height="24" opacity="0"></rect><g><path d="M22.87 11.47Q21.77 9.48 20.04 8.02Q18.31 6.55 16.24 5.77Q14.16 4.99 12 4.99Q9.84 4.99 7.76 5.77Q5.69 6.55 3.96 8.02Q2.23 9.48 1.13 11.47Q1.01 11.69 1.01 11.94Q1.01 12.19 1.13 12.43Q2.23 14.4 3.96 15.89Q5.69 17.38 7.78 18.18Q9.86 18.98 12 18.98Q14.16 18.98 16.24 18.18Q18.31 17.38 20.04 15.9Q21.77 14.42 22.87 12.43Q22.99 12.19 22.99 11.94Q22.99 11.69 22.87 11.47ZM10.15 17.33Q7.85 16.8 5.87 15.41Q3.89 14.02 2.66 12L2.66 11.83Q4.13 9.38 6.66 7.94Q9.19 6.5 12 6.5Q14.86 6.5 17.38 7.96Q19.9 9.41 21.36 11.86L21.36 12.05Q20.14 14.06 18.17 15.44Q16.2 16.82 13.92 17.35Q12.05 17.76 10.15 17.33ZM11.98 17.62Q13.39 17.62 14.58 16.92Q15.77 16.22 16.46 15.02Q17.16 13.82 17.16 12.41Q17.16 10.99 16.46 9.8Q15.77 8.62 14.58 7.92Q13.39 7.22 11.98 7.22Q11.09 7.22 10.25 7.51Q10.01 7.61 10.01 7.7Q10.01 7.8 10.27 7.92Q10.82 8.18 11.16 8.7Q11.5 9.22 11.5 9.84Q11.5 10.73 10.87 11.35Q10.25 11.98 9.38 11.98Q8.83 11.98 8.35 11.7Q7.87 11.42 7.58 10.97Q7.39 10.68 7.22 10.68Q7.06 10.68 6.96 10.99Q6.77 11.71 6.77 12.41Q6.77 13.82 7.46 15.02Q8.16 16.22 9.36 16.92Q10.56 17.62 11.98 17.62Z" fill="rgba(0,0,0,0.6)"></path></g></svg>