<?xml version="1.0" standalone="no"?>
<svg xmlns="http://www.w3.org/2000/svg" width="24" height="24"><rect width="24" height="24" opacity="0"></rect><g><path d="M21.84 10.27Q22.25 9.58 22.22 8.81Q22.2 8.04 21.74 7.37L18.62 2.69Q18.29 2.21 17.81 1.92Q17.33 1.63 16.8 1.61L11.16 1.25Q10.34 1.2 9.66 1.55Q8.98 1.9 8.57 2.57L2.16 13.7Q1.78 14.38 1.8 15.11Q1.82 15.84 2.2 16.48Q2.57 17.11 3.17 17.45L11.66 22.37Q12.31 22.75 13.04 22.75Q13.78 22.75 14.41 22.38Q15.05 22.01 15.43 21.36L21.84 10.27ZM16.7 3.1Q17.11 3.14 17.38 3.5L20.5 8.21Q20.66 8.47 20.69 8.78Q20.71 9.1 20.57 9.41Q20.57 9.43 20.52 9.53L14.14 20.62Q13.87 21.07 13.38 21.2Q12.89 21.34 12.41 21.07L3.91 16.18Q3.46 15.91 3.32 15.42Q3.19 14.93 3.46 14.47L9.89 3.34L9.94 3.26Q10.1 3.02 10.37 2.89Q10.63 2.76 10.97 2.76L16.7 3.1ZM14.11 11.21Q14.9 11.21 15.56 10.81Q16.22 10.42 16.62 9.76Q17.02 9.1 17.02 8.3Q17.02 7.51 16.63 6.84Q16.25 6.17 15.58 5.78Q14.9 5.4 14.11 5.4Q13.34 5.4 12.67 5.8Q12 6.19 11.62 6.85Q11.23 7.51 11.23 8.3Q11.23 9.07 11.62 9.74Q12 10.42 12.67 10.81Q13.34 11.21 14.11 11.21ZM14.11 6.91Q14.69 6.91 15.11 7.32Q15.53 7.73 15.53 8.3Q15.53 8.88 15.11 9.29Q14.69 9.7 14.11 9.7Q13.54 9.7 13.13 9.29Q12.72 8.88 12.72 8.3Q12.72 7.73 13.13 7.32Q13.54 6.91 14.11 6.91Z" fill="rgba(0,0,0,0.9019607843137255)"></path></g></svg>